<svg width="30" height="30" viewBox="0 0 30 30" fill="none" xmlns="http://www.w3.org/2000/svg">
<path fill-rule="evenodd" clip-rule="evenodd" d="M15 7.54492C11.6662 7.54492 9.58375 9.20117 8.75 12.5149C10 10.8587 11.4587 10.2374 13.125 10.6512C14.0762 10.8874 14.7562 11.5737 15.5075 12.3324C16.7337 13.5687 18.1525 14.9999 21.25 14.9999C24.5837 14.9999 26.6662 13.3437 27.5 10.0299C26.25 11.6862 24.7925 12.3074 23.125 11.8937C22.1737 11.6574 21.4937 10.9712 20.7412 10.2124C19.5162 8.97492 18.0987 7.54492 15 7.54492ZM8.75 14.9999C5.41625 14.9999 3.33375 16.6562 2.5 19.9699C3.75 18.3124 5.20875 17.6924 6.875 18.1062C7.82625 18.3424 8.50625 19.0287 9.25875 19.7874C10.4837 21.0237 11.9025 22.4549 15.0012 22.4549C18.335 22.4549 20.4175 20.7987 21.2512 17.4849C20.0012 19.1412 18.5425 19.7624 16.8762 19.3487C15.925 19.1124 15.245 18.4262 14.4937 17.6674C13.2662 16.4312 11.8475 14.9999 8.75 14.9999Z" fill="#73BEFF"/>
</svg>
